<?xml version="1.0" encoding="UTF-8"?>
<svg id="Layer_1" xmlns="http://www.w3.org/2000/svg" viewBox="0 0 1440 466.07">
  <defs>
    <style>
      .cls-1 {
        fill: #fff;
      }
    </style>
  </defs>
  <path class="cls-1" d="M638.73,259.21h-.37v.37h.37v-.37ZM638.73,247.74h.37v-.9l-.64.64.26.26ZM638.33,247.84l-.08-.37h0s.09.37.09.37ZM637.51,248.02l-.07-.37.07.37ZM636.69,248.17l-.07-.37.07.37ZM636.31,248.24h-.37v.37h.37v-.37ZM636.31,246.85l-.09-.36-.29.07v.3h.37ZM636.98,246.66l-.11-.36h0s.11.36.11.36ZM637.77,246.37l-.14-.35h0s.15.35.15.35ZM638.54,245.94l-.21-.31h0s.22.31.22.31ZM639.17,245.34v-.37h-.19l-.11.15.3.22ZM640.56,245.34h.37v-.37h-.37v.37ZM640.56,259.21v.37h.37v-.37h-.37ZM648.86,258.84l-.22.31h0s.21-.31.21-.31ZM647.73,257.38l-.35.14h0s.35-.14.35-.14ZM647.73,247.18l.35.14h0s-.35-.14-.35-.14ZM648.84,245.74l-.21-.31h0s.21.31.21.31ZM652.76,245.74l.21-.31-.21.31ZM653.88,247.18l-.35.14h0s.35-.14.35-.14ZM653.86,257.4l-.35-.14h0s.35.14.35.14ZM652.75,258.85l.21.31h0s-.22-.31-.22-.31ZM651.79,257.48l-.28-.25h0s.28.25.28.25ZM652.25,256.52l-.37-.08h0s.37.08.37.08ZM652.27,248.03l-.37.07h0s.37-.07.37-.07ZM651.81,247.07l-.28.25h0s.27-.25.27-.25ZM649.8,247.07l-.27-.26.27.26ZM649.34,248.03l.37.08h0s-.37-.08-.37-.08ZM649.34,256.52l-.37.07h0s0,.01,0,.01l.37-.09ZM649.82,257.48l-.28.25h0s.27-.25.27-.25ZM661.81,258.84l-.22.31h0s.21-.31.21-.31ZM660.69,257.38l-.35.14h0s.35-.14.35-.14ZM660.69,247.18l.35.14h0s-.35-.14-.35-.14ZM661.8,245.74l-.21-.31h0s.21.31.21.31ZM665.72,245.74l.21-.31-.21.31ZM666.83,247.18l-.35.14h0s.35-.14.35-.14ZM666.81,257.4l-.35-.14h0s.35.14.35.14ZM665.7,258.85l.21.31h0s-.22-.31-.22-.31ZM664.74,257.48l-.28-.25h0s.28.25.28.25ZM665.21,256.52l-.37-.08h0s.37.08.37.08ZM665.22,248.03l-.37.07h0s.37-.07.37-.07ZM664.76,247.07l-.28.25h0s.27-.25.27-.25ZM662.76,247.07l-.27-.26.27.26ZM662.29,248.03l.37.08h0s-.37-.08-.37-.08ZM662.29,256.52l-.37.07h0s0,.01,0,.01l.37-.09ZM662.77,257.48l-.28.25h0s.27-.25.27-.25ZM674.77,258.84l-.22.31h0s.21-.31.21-.31ZM673.64,257.38l-.35.14h0s.35-.14.35-.14ZM673.64,247.18l.35.14h0s-.35-.14-.35-.14ZM674.75,245.74l-.21-.31h0s.21.31.21.31ZM678.67,245.74l.21-.31-.21.31ZM679.79,247.18l-.35.14h0s.35-.14.35-.14ZM679.77,257.4l-.35-.14h0s.35.14.35.14ZM678.66,258.85l.21.31h0s-.22-.31-.22-.31ZM677.7,257.48l-.28-.25h0s.28.25.28.25ZM678.16,256.52l-.37-.08h0s.37.08.37.08ZM678.18,248.03l-.37.07h0s.37-.07.37-.07ZM677.71,247.07l-.28.25h0s.27-.25.27-.25ZM675.71,247.07l-.27-.26.27.26ZM675.25,248.03l.37.08h0s-.37-.08-.37-.08ZM675.25,256.52l-.37.07h0s0,.01,0,.01l.37-.09ZM675.73,257.48l-.28.25h0s.27-.25.27-.25ZM694.31,259.21h-.37s0,.37,0,.37h.38v-.37ZM694.56,245.34v-.37h-.37v.37s.37,0,.37,0ZM696.46,245.34l.37-.08-.06-.3h-.3v.37ZM698.91,256.59l-.37.08h.73s-.37-.08-.37-.08ZM701.38,245.34v-.37h-.3l-.06.29.37.08ZM703.26,245.34h.37s0-.37,0-.37h-.37v.37ZM703.52,259.21v.37h.38v-.38s-.38,0-.38,0ZM701.96,259.21h-.37s0,.37,0,.37h.37v-.37ZM701.81,249.15h.37s-.74-.09-.74-.09l.37.09ZM699.46,259.21v.37h.3l.07-.29-.37-.08ZM698.36,259.21l-.37.08.07.29h.3v-.37ZM696.04,249.15l.37-.08-.74.08h.37ZM695.88,259.21v.37h.37v-.37s-.37,0-.37,0ZM709.75,259.21h-.37v.37h.37v-.37ZM709.75,245.34v-.37h-.37v.37h.37ZM715.13,245.34h.37v-.37h-.37v.37ZM715.13,246.78v.37h.37v-.37h-.37ZM711.69,246.78v-.37h-.37v.37h.37ZM711.69,251.37h-.37v.37h.37v-.37ZM714.48,251.37h.37v-.37h-.37v.37ZM714.48,252.74v.37h.37v-.37h-.37ZM711.69,252.74v-.37h-.37v.37h.37ZM711.69,257.83h-.37v.37h.37v-.37ZM715.16,257.83h.37v-.37h-.37v.37ZM715.16,259.21v.37h.37v-.37h-.37ZM722.36,259.21h-.37v.37h.37v-.37ZM722.36,246.78h.37v-.37h-.37v.37ZM720.01,246.78h-.37v.37h.37v-.37ZM720.01,245.34v-.37h-.37v.37h.37ZM726.57,245.34h.37v-.37h-.37v.37ZM726.57,246.78v.37h.37v-.37h-.37ZM724.29,246.78v-.37h-.37v.37h.37ZM724.29,259.21v.37h.37v-.37h-.37ZM732.02,259.21h-.37v.37h.37v-.37ZM732.02,245.34v-.37h-.37v.37h.37ZM737.39,245.34h.37v-.37h-.37v.37ZM737.39,246.78v.37h.37v-.37h-.37ZM733.95,246.78v-.37h-.37v.37h.37ZM733.95,251.37h-.37v.37h.37v-.37ZM736.74,251.37h.37v-.37h-.37v.37ZM736.74,252.74v.37h.37v-.37h-.37ZM733.95,252.74v-.37h-.37v.37h.37ZM733.95,257.83h-.37v.37h.37v-.37ZM737.43,257.83h.37v-.37h-.37v.37ZM737.43,259.21v.37h.37v-.37h-.37ZM743.1,259.21h-.37v.37h.37v-.37ZM743.1,245.34v-.37h-.37v.37h.37ZM748.18,245.72l-.14.35h0s.14-.35.14-.35ZM749.52,246.9l-.33.17h0s.33-.17.33-.17ZM749.8,250.5l.36.1h0s-.36-.1-.36-.1ZM749.24,251.61l.29.24h0s-.29-.24-.29-.24ZM748.25,252.26l-.12-.36-.34.11.1.34.36-.1ZM750.22,259.21v.37h.49l-.13-.48-.36.1ZM748.35,259.21l-.36.1.08.27h.28v-.37ZM746.54,252.71l.36-.1-.08-.27h-.28v.37ZM745.03,252.71v-.37h-.37v.37h.37ZM745.03,259.21v.37h.37v-.37h-.37ZM745.03,251.32h-.37v.37h.37v-.37ZM747.86,250.41l.34.16-.34-.16ZM747.65,247.28l-.29.24h0s.29-.24.29-.24ZM745.03,246.73v-.37h-.37v.37h.37ZM757.32,258.85l-.21.31h0s.2-.31.2-.31ZM756.12,257.43l-.34.15.34-.15ZM755.64,255.33l-.1-.36-.29.08.02.3.37-.02ZM757.35,254.86l.37-.03-.03-.45-.44.12.1.36ZM757.58,256.29l-.36.09h0s.36-.09.36-.09ZM758.18,257.41l-.28.25h0s.27-.25.27-.25ZM760.45,257.43l-.28-.25h0l.28.25ZM760.42,254.71l-.3.22h0s.3-.22.3-.22ZM759.34,253.55l.25-.28h0s-.25.28-.25.28ZM757.01,251.49l.25-.28h0s-.25.28-.25.28ZM756,250.19l-.34.15h0s.34-.15.34-.15ZM756.55,246.06l.26.27-.26-.27ZM760.36,245.45l-.13.35h0s0,0,0,0l.11-.36ZM761.41,246.1l-.28.25h0s.27-.25.27-.25ZM762.08,247.23l-.35.12h0s.35-.12.35-.12ZM762.42,248.8l.1.36.3-.08-.03-.31-.37.04ZM760.78,249.25l-.37.03.04.45.43-.12-.1-.36ZM760.57,248l-.37.1h0s.36-.1.36-.1ZM760.03,247.07l-.26.27h0s0,.01,0,.01l.25-.28ZM757.8,247.11l.25.27h0l-.25-.27ZM757.61,249.28l-.34.17h0s0,.01,0,.01l.33-.18ZM758.31,250.12l-.25.28h0s.25-.28.25-.28ZM760.66,252.18l-.25.28h0s.25-.28.25-.28ZM762.04,253.82l-.31.2h0s.31-.2.31-.2ZM762.21,257.84l.32.19h0s-.33-.19-.33-.19ZM761.03,258.97l-.17-.33h0s.17.33.17.33ZM1076.43,44.11h-.37v.37h.37v-.37ZM1076.43,32.64h.37v-.9l-.64.64.27.26ZM1076.03,32.74l-.08-.37h0s.08.37.08.37ZM1075.21,32.91l-.07-.37.07.37ZM1074.39,33.07l-.07-.37.07.37ZM1074.02,33.13h-.37v.37h.37v-.37ZM1074.02,31.75l-.09-.36-.28.07v.3h.37ZM1074.68,31.56l-.11-.36h0s.12.36.12.36ZM1075.47,31.27l-.15-.35h0s.15.35.15.35ZM1076.24,30.84l-.22-.31h0s.22.31.22.31ZM1076.87,30.24v-.37h-.19l-.11.15.3.22ZM1078.26,30.24h.37v-.37h-.37v.37ZM1078.26,44.11v.37h.37v-.37h-.37ZM1088.79,44.11h-.37v.37h.37v-.37ZM1088.79,40.39h.37v-.37h-.37v.37ZM1084.76,40.39h-.37v.37h.37v-.37ZM1084.76,38.48l-.34-.15-.03.07v.08h.37ZM1088.38,30.24v-.37h-.25l-.1.22.34.15ZM1090.54,30.24h.37v-.37h-.37v.37ZM1090.54,38.77h-.37v.37h.37v-.37ZM1092.09,38.77h.37v-.37h-.37v.37ZM1092.09,40.39v.37h.37v-.37h-.37ZM1090.54,40.39v-.37h-.37v.37h.37ZM1090.54,44.11v.37h.37v-.37h-.37ZM1086.53,38.77l-.35-.13-.18.5h.53v-.37ZM1088.79,38.77v.37h.37v-.37h-.37ZM1088.79,32.47h.37l-.73-.13.35.13ZM1098.81,43.87l-.18.33h0s.17-.33.17-.33ZM1097.66,42.69l-.33.17.33-.17ZM1097.25,40.82h-.37s.37,0,.37,0ZM1097.25,40.67v-.37h-.37v.37h.37ZM1099.09,40.67h.37v-.37h-.37v.37ZM1099.41,42.21l-.32.19h0s.32-.19.32-.19ZM1101.53,42.43l.25.28h0s-.26-.28-.26-.28ZM1102.05,41.46l.36.1h0s-.36-.1-.36-.1ZM1102.22,37.67h.37v-1.35l-.7,1.16.32.19ZM1101.45,38.37l.17.33h0s-.17-.33-.17-.33ZM1098.4,38.13l-.23.29h0s.22-.29.22-.29ZM1097.48,36.73l-.36.1h0s.36-.1.36-.1ZM1097.56,32.35l.36.12h0s-.36-.12-.36-.12ZM1098.66,30.72l-.23-.3h0s.24.3.24.3ZM1102.61,30.74l-.23.29h0s.23-.29.23-.29ZM1103.7,32.36l-.35.12h0s.35-.12.35-.12ZM1103.76,41.78l-.36-.1.36.1ZM1102.72,43.6l.25.28h0s-.25-.28-.25-.28ZM1101.64,36.95l.23.3h0s-.24-.3-.24-.3ZM1102.22,36.28l.32.19.05-.09v-.1h-.37ZM1102.08,32.93l-.36.08h0s.36-.08.36-.08ZM1101.6,31.99l-.27.26h0s.26-.26.26-.26ZM1099.7,31.99l-.26-.27h0s.27.27.27.27ZM1099.21,32.93l-.37-.1h0s.37.1.37.1ZM1099.14,35.7l-.37.04h0s.37-.04.37-.04ZM1099.54,36.83l-.29.23h0s0,.01,0,.01l.28-.24ZM1111.51,43.87l-.18.33h0s.17-.33.17-.33ZM1110.37,42.69l-.34.17.34-.17ZM1109.96,40.82h-.37s.37,0,.37,0ZM1109.96,40.67v-.37h-.37v.37h.37ZM1111.79,40.67h.37v-.37h-.37v.37ZM1112.11,42.21l-.32.19h0s.32-.19.32-.19ZM1114.23,42.43l.25.28h0s-.26-.28-.26-.28ZM1114.75,41.46l.36.1h0s-.36-.1-.36-.1ZM1114.92,37.67h.37v-1.35l-.7,1.16.32.19ZM1114.15,38.37l.17.33h0s-.17-.33-.17-.33ZM1111.1,38.13l-.23.29h0s.22-.29.22-.29ZM1110.18,36.73l-.36.1h0s.36-.1.36-.1ZM1110.26,32.35l.36.12h0s-.36-.12-.36-.12ZM1111.36,30.72l-.22-.3h0s.23.3.23.3ZM1115.31,30.74l-.23.29h0s.23-.29.23-.29ZM1116.41,32.36l-.35.12h0s.35-.12.35-.12ZM1116.46,41.78l-.36-.1.36.1ZM1115.42,43.6l.25.28h0s-.25-.28-.25-.28ZM1114.34,36.95l.23.3h0s-.24-.3-.24-.3ZM1114.92,36.28l.32.19.05-.09v-.1h-.37ZM1114.78,32.93l-.36.08h0s.36-.08.36-.08ZM1114.3,31.99l-.27.26h0s.26-.26.26-.26ZM1112.41,31.99l-.27-.27h0s.27.27.27.27ZM1111.91,32.93l-.37-.1h0s.37.1.37.1ZM1111.84,35.7l-.37.04h0s.37-.04.37-.04ZM1112.25,36.83l-.3.23h0s0,.01,0,.01l.28-.24ZM1130.94,44.11h-.37s0,.37,0,.37h.38v-.37ZM1131.2,30.24v-.37h-.37v.37s.37,0,.37,0ZM1133.09,30.24l.37-.08-.06-.3h-.31v.37ZM1135.54,41.49l-.37.08h.73s-.37-.08-.37-.08ZM1138.01,30.24v-.37h-.3l-.07.29.37.08ZM1139.89,30.24h.37s0-.37,0-.37h-.37v.37ZM1140.15,44.11v.37h.38v-.38s-.38,0-.38,0ZM1138.59,44.11h-.37s0,.37,0,.37h.37v-.37ZM1138.44,34.04h.37s-.73-.09-.73-.09l.36.09ZM1136.09,44.11v.37h.3l.07-.29-.37-.09ZM1135,44.11l-.37.08.07.29h.3v-.37ZM1132.66,34.04l.37-.08-.74.08h.37ZM1132.51,44.11v.37h.37v-.37s-.37,0-.37,0ZM1146.39,44.11h-.37v.37h.37v-.37ZM1146.39,30.24v-.37h-.37v.37h.37ZM1151.76,30.24h.37v-.37h-.37v.37ZM1151.76,31.68v.37h.37v-.37h-.37ZM1148.32,31.68v-.37h-.37v.37h.37ZM1148.32,36.27h-.37v.37h.37v-.37ZM1151.11,36.27h.37v-.37h-.37v.37ZM1151.11,37.64v.37h.37v-.37h-.37ZM1148.32,37.64v-.37h-.37v.37h.37ZM1148.32,42.72h-.37v.37h.37v-.37ZM1151.79,42.72h.37v-.37h-.37v.37ZM1151.79,44.11v.37h.37v-.37h-.37ZM1158.99,44.11h-.37v.37h.37v-.37ZM1158.99,31.68h.37v-.37h-.37v.37ZM1156.64,31.68h-.37v.37h.37v-.37ZM1156.64,30.24v-.37h-.37v.37h.37ZM1163.2,30.24h.37v-.37h-.37v.37ZM1163.2,31.68v.37h.37v-.37h-.37ZM1160.93,31.68v-.37h-.37v.37h.37ZM1160.93,44.11v.37h.37v-.37h-.37ZM1168.65,44.11h-.37v.37h.37v-.37ZM1168.65,30.24v-.37h-.37v.37h.37ZM1174.02,30.24h.37v-.37h-.37v.37ZM1174.02,31.68v.37h.37v-.37h-.37ZM1170.58,31.68v-.37h-.37v.37h.37ZM1170.58,36.27h-.37v.37h.37v-.37ZM1173.38,36.27h.37v-.37h-.37v.37ZM1173.38,37.64v.37h.37v-.37h-.37ZM1170.58,37.64v-.37h-.37v.37h.37ZM1170.58,42.72h-.37v.37h.37v-.37ZM1174.06,42.72h.37v-.37h-.37v.37ZM1174.06,44.11v.37h.37v-.37h-.37ZM1179.73,44.11h-.37v.37h.37v-.37ZM1179.73,30.24v-.37h-.37v.37h.37ZM1184.81,30.62l-.14.35h0s.13-.35.13-.35ZM1186.15,31.8l-.33.17h0s.33-.17.33-.17ZM1186.43,35.39l.36.1h0s-.36-.1-.36-.1ZM1185.88,36.51l.28.24h0s-.28-.24-.28-.24ZM1184.88,37.16l-.12-.36-.34.11.1.34.36-.1ZM1186.85,44.11v.37h.49l-.13-.48-.36.1ZM1184.99,44.11l-.36.1.07.27h.28v-.37ZM1183.17,37.6l.36-.1-.08-.27h-.28v.37ZM1181.67,37.6v-.37h-.37v.37h.37ZM1181.67,44.11v.37h.37v-.37h-.37ZM1181.67,36.22h-.37v.37h.37v-.37ZM1184.49,35.31l.34.16-.34-.16ZM1184.28,32.18l-.29.24h0s.28-.24.28-.24ZM1181.67,31.63v-.37h-.37v.37h.37ZM1193.95,43.75l-.2.31h0s.2-.31.2-.31ZM1192.75,42.33l-.34.15.34-.15ZM1192.27,40.22l-.1-.36-.29.08.02.3.37-.02ZM1193.99,39.76l.37-.03-.03-.45-.43.12.1.36ZM1194.21,41.18l-.36.09h0s.36-.09.36-.09ZM1194.8,42.31l-.28.25h0s.27-.25.27-.25ZM1197.08,42.33l-.28-.25h0s.28.25.28.25ZM1197.05,39.61l-.3.22h0s.29-.22.29-.22ZM1195.97,38.44l.25-.28h0s-.25.28-.25.28ZM1193.64,36.39l.25-.28h0s-.25.28-.25.28ZM1192.63,35.09l-.34.15h0s.34-.15.34-.15ZM1193.18,30.96l.26.27-.26-.27ZM1197,30.34l-.13.35h0s0,0,0,0l.12-.36ZM1198.04,30.99l-.28.25h0s.27-.25.27-.25ZM1198.71,32.12l-.35.12h0s.35-.12.35-.12ZM1199.05,33.7l.1.36.3-.08-.02-.31-.37.04ZM1197.41,34.14l-.37.03.03.45.44-.12-.1-.36ZM1197.2,32.89l-.36.1h0s.36-.1.36-.1ZM1196.66,31.97l-.26.27h0s0,.01,0,.01l.25-.28ZM1194.43,32l.26.27h0s-.26-.27-.26-.27ZM1194.24,34.18l-.34.17h0s0,.01,0,.01l.33-.18ZM1194.94,35.02l-.25.28h0s.24-.28.24-.28ZM1197.29,37.07l-.24.28h0s.24-.28.24-.28ZM1198.67,38.72l-.31.2h0s.31-.2.31-.2ZM1198.84,42.74l.33.19h0s-.33-.19-.33-.19ZM1197.67,43.87l-.17-.33h0s.18.33.18.33ZM788.52,256.63c-.18.09-.25.32-.16.5l1.52,3.01c.1.19.32.26.51.17.18-.09.25-.32.16-.5l-1.36-2.68,2.68-1.35c.19-.09.26-.32.16-.5-.09-.18-.31-.26-.5-.16l-3.01,1.52ZM1216.64,35.49c-.21,0-.37.18-.36.39l.15,3.37c0,.21.19.37.39.36.21,0,.37-.18.36-.39l-.13-2.99,3-.13c.2,0,.37-.18.36-.39-.02-.21-.19-.37-.4-.36l-3.37.15ZM639.1,259.21v-11.47h-.75v11.47h.75ZM638.46,247.48s.04-.04.05-.04c.01,0,.02-.01.03-.02.01,0,.02-.01.03-.01,0,0,.01,0,0,0,0,0-.03,0-.06.02-.06.02-.15.04-.28.07l.17.73c.13-.03.23-.05.3-.07.04,0,.07-.02.1-.03.01,0,.03-.01.05-.02,0,0,.02,0,.04-.02.01,0,.05-.03.09-.07l-.53-.53ZM638.25,247.48c-.23.06-.5.11-.8.17l.14.74c.31-.06.59-.12.84-.17l-.17-.73ZM637.44,247.65c-.31.06-.58.11-.82.15l.14.74c.24-.05.51-.1.82-.15l-.14-.74ZM636.62,247.8c-.12.02-.21.04-.27.05-.03,0-.05,0-.07.01,0,0-.01,0-.01,0,0,0,0,0,0,0,0,0,0,0,.01,0,0,0,.01,0,.03,0v.75s.04,0,.04,0c0,0,.01,0,.02,0,0,0,.02,0,.03,0,.02,0,.05,0,.08-.01.06-.01.16-.03.28-.05l-.14-.74ZM636.69,248.24v-1.39h-.75v1.39h.75ZM636.4,247.22c.21-.05.44-.11.7-.2l-.23-.71c-.25.08-.46.14-.64.18l.17.73ZM637.09,247.02c.28-.08.55-.19.83-.31l-.3-.69c-.25.11-.5.2-.75.28l.22.72ZM637.91,246.72c.3-.12.58-.28.84-.47l-.44-.61c-.22.15-.45.28-.7.39l.29.69ZM638.75,246.25c.28-.19.52-.42.72-.68l-.6-.45c-.14.19-.33.37-.54.51l.42.62ZM639.17,245.72h1.39v-.75h-1.39v.75ZM640.18,245.34v13.87h.75v-13.87h-.75ZM640.56,258.84h-1.83v.75h1.83v-.75ZM650.81,258.99c-.73,0-1.3-.16-1.74-.46l-.42.62c.59.41,1.32.6,2.16.6v-.75ZM649.08,258.53c-.44-.31-.77-.74-1-1.29l-.69.28c.28.68.7,1.22,1.26,1.62l.43-.61ZM648.08,257.24c-.22-.57-.33-1.22-.33-1.97h-.75c0,.83.13,1.57.39,2.24l.7-.27ZM647.75,255.27v-5.98h-.75v5.98h.75ZM647.75,249.3c0-.77.11-1.43.33-1.98l-.7-.28c-.26.66-.39,1.42-.39,2.26h.75ZM648.08,247.31c.21-.55.54-.97.97-1.26l-.42-.62c-.57.39-.99.93-1.25,1.61l.7.27ZM649.05,246.05c.44-.29,1.01-.45,1.76-.45v-.75c-.85,0-1.59.18-2.18.58l.42.62ZM650.81,245.6c.75,0,1.32.16,1.74.45l.42-.62c-.58-.4-1.31-.58-2.16-.58v.75ZM652.55,246.05c.43.3.76.71.98,1.26l.7-.27c-.26-.68-.68-1.22-1.25-1.61l-.42.62ZM653.53,247.31c.22.55.33,1.21.33,1.98h.75c0-.85-.13-1.6-.39-2.26l-.7.28ZM653.86,249.3v5.98h.75v-5.98h-.75ZM653.86,255.27c0,.76-.12,1.42-.35,1.98l.69.28c.27-.67.4-1.43.4-2.26h-.75ZM653.51,257.26c-.22.55-.54.98-.98,1.28l.43.61c.57-.4.98-.95,1.25-1.63l-.7-.27ZM652.54,258.54c-.42.29-.99.45-1.72.45v.75c.84,0,1.56-.18,2.15-.58l-.42-.62ZM650.81,258.23c.51,0,.95-.15,1.26-.51l-.57-.49c-.13.14-.33.25-.69.25v.75ZM652.07,257.74c.28-.31.46-.69.55-1.14l-.73-.15c-.07.33-.2.59-.37.78l.55.5ZM652.62,256.61c.1-.43.15-.87.15-1.32h-.75c0,.39-.04.78-.13,1.15l.73.17ZM652.76,255.29v-6.01h-.75v6.01h.75ZM652.76,249.28c0-.47-.04-.91-.13-1.33l-.73.15c.07.36.11.75.11,1.17h.75ZM652.64,247.96c-.09-.45-.27-.84-.56-1.14l-.54.52c.17.18.3.43.37.77l.74-.15ZM652.08,246.82c-.31-.34-.76-.48-1.27-.48v.75c.38,0,.59.1.71.24l.56-.5ZM650.81,246.34c-.51,0-.96.14-1.28.48l.54.52c.14-.14.36-.24.74-.24v-.75ZM649.53,246.82c-.29.3-.47.69-.56,1.14l.73.15c.07-.35.2-.6.37-.77l-.54-.52ZM648.97,247.96c-.09.42-.13.86-.13,1.33h.75c0-.42.04-.81.11-1.17l-.73-.15ZM648.85,249.28v6.01h.75v-6.01h-.75ZM648.85,255.29c0,.45.04.88.13,1.31l.73-.15c-.07-.37-.11-.76-.11-1.16h-.75ZM648.98,256.61c.1.44.29.82.57,1.12l.55-.5c-.18-.2-.31-.45-.39-.79l-.73.17ZM649.55,257.74c.33.34.76.49,1.26.49v-.75c-.34,0-.57-.1-.72-.26l-.54.52ZM663.77,258.99c-.73,0-1.3-.16-1.74-.46l-.42.62c.59.41,1.32.6,2.16.6v-.75ZM662.03,258.53c-.44-.31-.77-.74-1-1.29l-.69.28c.28.68.7,1.22,1.26,1.62l.43-.61ZM661.03,257.24c-.22-.57-.33-1.22-.33-1.97h-.75c0,.83.13,1.57.39,2.24l.7-.27ZM660.7,255.27v-5.98h-.75v5.98h.75ZM660.7,249.3c0-.77.11-1.43.33-1.98l-.7-.28c-.26.66-.39,1.42-.39,2.26h.75ZM661.03,247.31c.21-.55.54-.97.97-1.26l-.42-.62c-.57.39-.99.93-1.25,1.61l.7.27ZM662.01,246.05c.44-.29,1.01-.45,1.76-.45v-.75c-.85,0-1.59.18-2.18.58l.42.62ZM663.77,245.6c.75,0,1.32.16,1.74.45l.42-.62c-.58-.4-1.31-.58-2.16-.58v.75ZM665.51,246.05c.43.3.76.71.98,1.26l.7-.27c-.26-.68-.68-1.22-1.25-1.61l-.42.62ZM666.48,247.31c.22.55.33,1.21.33,1.98h.75c0-.85-.13-1.6-.39-2.26l-.7.28ZM666.82,249.3v5.98h.75v-5.98h-.75ZM666.82,255.27c0,.76-.12,1.42-.35,1.98l.69.28c.27-.67.4-1.43.4-2.26h-.75ZM666.47,257.26c-.22.55-.54.98-.98,1.28l.43.61c.57-.4.98-.95,1.25-1.63l-.7-.27ZM665.49,258.54c-.42.29-.99.45-1.72.45v.75c.84,0,1.56-.18,2.15-.58l-.42-.62ZM663.77,258.23c.51,0,.95-.15,1.26-.51l-.57-.49c-.13.14-.33.25-.69.25v.75ZM665.02,257.74c.28-.31.46-.69.55-1.14l-.73-.15c-.07.33-.2.59-.37.78l.55.5ZM665.57,256.61c.1-.43.15-.87.15-1.32h-.75c0,.39-.04.78-.13,1.15l.73.17ZM665.72,255.29v-6.01h-.75v6.01h.75ZM665.72,249.28c0-.47-.04-.91-.13-1.33l-.73.15c.07.36.11.75.11,1.17h.75ZM665.59,247.96c-.09-.45-.27-.84-.56-1.14l-.54.52c.17.18.3.43.37.77l.74-.15ZM665.04,246.82c-.31-.34-.76-.48-1.27-.48v.75c.38,0,.59.1.71.24l.56-.5ZM663.77,246.34c-.51,0-.96.14-1.28.48l.54.52c.14-.14.36-.24.74-.24v-.75ZM662.49,246.82c-.29.3-.47.69-.56,1.14l.73.15c.07-.35.2-.6.37-.77l-.54-.52ZM661.93,247.96c-.09.42-.13.86-.13,1.33h.75c0-.42.04-.81.11-1.17l-.73-.15ZM661.8,249.28v6.01h.75v-6.01h-.75ZM661.8,255.29c0,.45.04.88.13,1.31l.73-.15c-.07-.37-.11-.76-.11-1.16h-.75ZM661.93,256.61c.1.44.29.82.57,1.12l.55-.5c-.18-.2-.31-.45-.39-.79l-.73.17ZM662.5,257.74c.33.34.76.49,1.26.49v-.75c-.34,0-.57-.1-.72-.26l-.54.52ZM676.72,258.99c-.73,0-1.3-.16-1.74-.46l-.42.62c.59.41,1.32.6,2.16.6v-.75ZM674.98,258.53c-.44-.31-.77-.74-1-1.29l-.69.28c.28.68.7,1.22,1.26,1.62l.43-.61ZM673.99,257.24c-.22-.57-.33-1.22-.33-1.97h-.75c0,.83.13,1.57.39,2.24l.7-.27ZM673.65,255.27v-5.98h-.75v5.98h.75ZM673.65,249.3c0-.77.11-1.43.33-1.98l-.7-.28c-.26.66-.39,1.42-.39,2.26h.75ZM673.99,247.31c.21-.55.54-.97.97-1.26l-.42-.62c-.57.39-.99.93-1.25,1.61l.7.27ZM674.96,246.05c.44-.29,1.01-.45,1.76-.45v-.75c-.85,0-1.59.18-2.18.58l.42.62ZM676.72,245.6c.75,0,1.32.16,1.74.45l.42-.62c-.58-.4-1.31-.58-2.16-.58v.75ZM678.46,246.05c.43.3.76.71.98,1.26l.7-.27c-.26-.68-.68-1.22-1.25-1.61l-.42.62ZM679.44,247.31c.22.55.33,1.21.33,1.98h.75c0-.85-.12-1.6-.39-2.26l-.7.28ZM679.77,249.3v5.98h.75v-5.98h-.75ZM679.77,255.27c0,.76-.12,1.42-.35,1.98l.69.28c.27-.67.4-1.43.4-2.26h-.75ZM679.42,257.26c-.22.55-.54.98-.98,1.28l.43.61c.57-.4.98-.95,1.25-1.63l-.7-.27ZM678.44,258.54c-.42.29-.99.45-1.72.45v.75c.84,0,1.56-.18,2.15-.58l-.42-.62ZM676.72,258.23c.51,0,.95-.15,1.26-.51l-.57-.49c-.13.14-.33.25-.69.25v.75ZM677.97,257.74c.28-.31.46-.69.55-1.14l-.73-.15c-.07.33-.2.59-.37.78l.55.5ZM678.52,256.61c.1-.43.15-.87.15-1.32h-.75c0,.39-.04.78-.13,1.15l.73.17ZM678.67,255.29v-6.01h-.75v6.01h.75ZM678.67,249.28c0-.47-.04-.91-.13-1.33l-.73.15c.07.36.11.75.11,1.17h.75ZM678.54,247.96c-.09-.45-.27-.84-.56-1.14l-.54.52c.17.18.3.43.37.77l.74-.15ZM677.99,246.82c-.31-.34-.76-.48-1.27-.48v.75c.38,0,.59.1.71.24l.56-.5ZM676.72,246.34c-.51,0-.96.14-1.28.48l.54.52c.14-.14.36-.24.74-.24v-.75ZM675.44,246.82c-.29.3-.47.69-.56,1.14l.73.15c.07-.35.2-.6.37-.77l-.54-.52ZM674.88,247.96c-.09.42-.13.86-.13,1.33h.75c0-.42.04-.81.11-1.17l-.73-.15ZM674.75,249.28v6.01h.75v-6.01h-.75ZM674.75,255.29c0,.45.04.88.13,1.31l.73-.15c-.07-.37-.11-.76-.11-1.16h-.75ZM674.88,256.61c.1.44.29.82.57,1.12l.55-.5c-.18-.2-.31-.45-.39-.79l-.73.17ZM675.46,257.74c.33.34.76.49,1.26.49v-.75c-.34,0-.57-.1-.72-.26l-.54.52ZM694.68,259.22l.26-13.87h-.75s-.26,13.86-.26,13.86h.75ZM694.56,245.72h1.9v-.75h-1.9v.75ZM696.1,245.42l2.45,11.25.73-.16-2.45-11.25-.73.16ZM699.28,256.67l2.47-11.25-.73-.16-2.47,11.25.73.16ZM701.38,245.72h1.88v-.75h-1.88v.75ZM702.89,245.35l.26,13.87h.75s-.26-13.88-.26-13.88h-.75ZM703.52,258.84h-1.56v.75h1.56v-.75ZM702.34,259.21l-.15-10.07h-.75s.15,10.08.15,10.08h.75ZM701.44,249.06l-2.35,10.07.73.17,2.35-10.07-.73-.17ZM699.46,258.84h-1.1v.75h1.1v-.75ZM698.73,259.13l-2.33-10.07-.73.17,2.33,10.07.73-.17ZM695.66,249.14l-.15,10.07h.75s.15-10.06.15-10.06h-.75ZM695.88,258.84h-1.58v.75h1.58v-.75ZM710.13,259.21v-13.87h-.75v13.87h.75ZM709.75,245.72h5.38v-.75h-5.38v.75ZM714.75,245.34v1.44h.75v-1.44h-.75ZM715.13,246.41h-3.44v.75h3.44v-.75ZM711.31,246.78v4.59h.75v-4.59h-.75ZM711.69,251.75h2.79v-.75h-2.79v.75ZM714.1,251.37v1.37h.75v-1.37h-.75ZM714.48,252.37h-2.79v.75h2.79v-.75ZM711.31,252.74v5.09h.75v-5.09h-.75ZM711.69,258.2h3.48v-.75h-3.48v.75ZM714.79,257.83v1.39h.75v-1.39h-.75ZM715.16,258.84h-5.41v.75h5.41v-.75ZM722.73,259.21v-12.43h-.75v12.43h.75ZM722.36,246.41h-2.35v.75h2.35v-.75ZM720.39,246.78v-1.44h-.75v1.44h.75ZM720.01,245.72h6.56v-.75h-6.56v.75ZM726.2,245.34v1.44h.75v-1.44h-.75ZM726.57,246.41h-2.28v.75h2.28v-.75ZM723.92,246.78v12.43h.75v-12.43h-.75ZM724.29,258.84h-1.93v.75h1.93v-.75ZM732.39,259.21v-13.87h-.75v13.87h.75ZM732.02,245.72h5.38v-.75h-5.38v.75ZM737.02,245.34v1.44h.75v-1.44h-.75ZM737.39,246.41h-3.44v.75h3.44v-.75ZM733.58,246.78v4.59h.75v-4.59h-.75ZM733.95,251.75h2.79v-.75h-2.79v.75ZM736.37,251.37v1.37h.75v-1.37h-.75ZM736.74,252.37h-2.79v.75h2.79v-.75ZM733.58,252.74v5.09h.75v-5.09h-.75ZM733.95,258.2h3.48v-.75h-3.48v.75ZM737.05,257.83v1.39h.75v-1.39h-.75ZM737.43,258.84h-5.41v.75h5.41v-.75ZM743.47,259.21v-13.87h-.75v13.87h.75ZM743.1,245.72h2.79v-.75h-2.79v.75ZM745.89,245.72c.89,0,1.61.12,2.15.35l.29-.69c-.67-.28-1.48-.41-2.44-.41v.75ZM748.04,246.07c.53.21.9.54,1.14,1.01l.66-.35c-.33-.63-.84-1.09-1.53-1.36l-.28.7ZM749.19,247.08c.26.46.4,1.1.4,1.94h.75c0-.92-.15-1.69-.49-2.3l-.66.36ZM749.59,249.03c0,.51-.05.97-.16,1.38l.73.19c.12-.48.18-1,.18-1.56h-.75ZM749.43,250.4c-.1.39-.26.71-.48.97l.58.47c.29-.35.49-.78.62-1.25l-.73-.19ZM748.96,251.37c-.2.24-.47.42-.83.54l.24.71c.47-.16.86-.41,1.16-.76l-.57-.48ZM747.89,252.36l1.97,6.95.72-.2-1.97-6.95-.72.2ZM750.22,258.84h-1.87v.75h1.87v-.75ZM748.71,259.11l-1.81-6.51-.72.2,1.82,6.51.72-.2ZM746.54,252.33h-1.51v.75h1.51v-.75ZM744.66,252.71v6.51h.75v-6.51h-.75ZM745.03,258.84h-1.94v.75h1.94v-.75ZM745.03,251.69h.74v-.75h-.74v.75ZM745.77,251.69c.57,0,1.07-.07,1.48-.23l-.28-.7c-.28.11-.68.18-1.2.18v.75ZM747.24,251.46c.43-.17.75-.47.95-.89l-.67-.33c-.12.25-.3.41-.56.52l.28.7ZM748.19,250.57c.19-.4.28-.93.28-1.55h-.75c0,.57-.08.97-.2,1.22l.67.33ZM748.47,249.03c0-.84-.15-1.53-.53-1.99l-.57.48c.21.25.36.72.36,1.51h.75ZM747.94,247.04c-.41-.5-1.15-.69-2.05-.69v.75c.86,0,1.29.18,1.47.41l.58-.47ZM745.89,246.36h-.86v.75h.86v-.75ZM744.66,246.73v4.59h.75v-4.59h-.75ZM759.32,258.99c-.74,0-1.34-.16-1.8-.45l-.4.63c.61.39,1.35.57,2.2.57v-.75ZM757.52,258.54c-.46-.3-.82-.72-1.06-1.26l-.68.31c.31.67.75,1.2,1.33,1.58l.41-.63ZM756.46,257.28c-.25-.56-.4-1.21-.44-1.97l-.75.04c.04.84.22,1.58.51,2.24l.68-.31ZM755.74,255.69l1.71-.46-.19-.72-1.71.46.19.72ZM756.98,254.89c.04.51.12,1.01.24,1.49l.73-.18c-.11-.43-.18-.89-.22-1.36l-.75.05ZM757.22,256.38c.13.5.36.94.68,1.28l.55-.51c-.23-.25-.4-.57-.52-.98l-.72.2ZM757.91,257.67c.36.38.85.54,1.42.54v-.75c-.41,0-.69-.12-.88-.31l-.54.52ZM759.32,258.22c.57,0,1.06-.16,1.41-.53l-.55-.51c-.16.17-.42.29-.85.29v.75ZM760.73,257.69c.34-.38.49-.88.49-1.47h-.75c0,.46-.11.77-.29.96l.55.51ZM761.22,256.22c0-.68-.15-1.27-.5-1.73l-.6.45c.22.29.35.71.35,1.28h.75ZM760.72,254.49c-.31-.41-.68-.82-1.13-1.22l-.5.56c.42.37.76.74,1.03,1.11l.61-.44ZM759.58,253.26l-2.32-2.06-.49.56,2.32,2.05.49-.56ZM757.26,251.21c-.43-.37-.73-.76-.92-1.18l-.67.31c.24.52.61,1,1.1,1.43l.49-.56ZM756.34,250.04c-.19-.42-.29-.95-.29-1.61h-.75c0,.73.12,1.38.36,1.92l.68-.31ZM756.05,248.43c0-.94.27-1.62.76-2.09l-.52-.54c-.67.65-.99,1.54-.99,2.63h.75ZM756.81,246.33c.49-.48,1.18-.73,2.12-.73v-.75c-1.08,0-1.98.3-2.65.94l.52.54ZM758.93,245.6c.51,0,.94.07,1.3.2l.25-.7c-.46-.17-.98-.25-1.56-.25v.75ZM760.25,245.8c.37.12.66.3.88.55l.55-.51c-.31-.35-.72-.6-1.2-.75l-.23.71ZM761.14,246.36c.24.25.43.58.58.99l.7-.25c-.17-.5-.42-.92-.75-1.27l-.54.52ZM761.73,247.36c.16.41.26.9.32,1.48l.74-.07c-.06-.63-.18-1.19-.36-1.68l-.7.27ZM762.32,248.44l-1.64.45.19.72,1.65-.45-.2-.72ZM761.15,249.22c-.04-.48-.1-.92-.22-1.32l-.72.2c.09.35.16.74.19,1.18l.75-.06ZM760.93,247.9c-.12-.45-.34-.83-.66-1.11l-.49.57c.19.17.34.41.43.74l.73-.19ZM760.28,246.8c-.34-.33-.82-.46-1.35-.46v.75c.42,0,.67.1.83.26l.52-.54ZM758.93,246.34c-.55,0-1.03.15-1.39.5l.52.54c.19-.18.46-.29.88-.29v-.75ZM757.54,246.84c-.36.35-.51.84-.51,1.4h.75c0-.44.11-.7.28-.86l-.52-.54ZM757.03,248.24c0,.46.07.87.25,1.21l.67-.34c-.1-.21-.16-.49-.16-.88h-.75ZM757.28,249.46c.17.32.44.64.78.94l.5-.56c-.3-.27-.5-.51-.62-.74l-.66.36ZM758.06,250.4l2.35,2.05.49-.56-2.35-2.05-.49.56ZM760.41,252.46c.49.43.94.95,1.32,1.56l.64-.4c-.42-.67-.91-1.24-1.46-1.73l-.49.57ZM761.73,254.02c.35.56.54,1.23.54,2.04h.75c0-.93-.21-1.75-.66-2.44l-.63.4ZM762.27,256.06c0,.63-.13,1.16-.37,1.59l.65.37c.32-.57.47-1.23.47-1.97h-.75ZM761.89,257.65c-.25.43-.59.76-1.03.99l.35.66c.56-.3,1.01-.72,1.33-1.27l-.64-.38ZM760.86,258.64c-.43.23-.94.35-1.54.35v.75c.7,0,1.33-.14,1.89-.44l-.35-.66ZM1076.81,44.11v-11.47h-.75v11.47h.75ZM1076.16,32.37s.04-.04.05-.04c.02,0,.02-.01.03-.02.02,0,.03-.01.03-.01,0,0,.02,0,0,0,0,0-.02,0-.05.02-.06.02-.15.04-.28.07l.16.73c.13-.03.22-.05.3-.07.04,0,.07-.02.1-.03,0,0,.03-.01.04-.02.02,0,.03-.01.05-.02,0,0,.05-.03.09-.07l-.53-.53ZM1075.95,32.38c-.23.06-.5.11-.81.17l.14.74c.31-.06.59-.12.84-.18l-.17-.73ZM1075.14,32.54c-.31.06-.58.11-.82.15l.14.74c.24-.05.51-.1.82-.15l-.14-.74ZM1074.32,32.7c-.12.02-.21.04-.27.05-.03,0-.05,0-.07.01,0,0,0,0,0,0s0,0,0,0c0,0,0,0,.02,0,0,0,.02,0,.03,0v.75s.04,0,.05,0c0,0,0,0,.02,0,0,0,.02,0,.03,0,.01,0,.04,0,.07-.01.07-.01.16-.03.28-.05l-.14-.74ZM1074.39,33.13v-1.39h-.75v1.39h.75ZM1074.1,32.11c.2-.05.43-.11.7-.2l-.23-.71c-.24.08-.46.14-.64.18l.17.73ZM1074.79,31.92c.28-.08.55-.19.83-.31l-.3-.69c-.25.11-.5.2-.75.28l.22.72ZM1075.61,31.61c.3-.12.58-.28.85-.47l-.44-.61c-.21.15-.44.28-.7.39l.29.69ZM1076.45,31.15c.28-.19.52-.42.72-.68l-.6-.45c-.14.19-.32.37-.55.51l.43.62ZM1076.87,30.62h1.39v-.75h-1.39v.75ZM1077.88,30.24v13.87h.75v-13.87h-.75ZM1078.26,43.73h-1.83v.75h1.83v-.75ZM1089.16,44.11v-3.72h-.75v3.72h.75ZM1088.79,40.02h-4.02v.75h4.02v-.75ZM1085.14,40.39v-1.92h-.75v1.92h.75ZM1085.11,38.63l3.61-8.24-.69-.3-3.61,8.24.69.3ZM1088.38,30.62h2.16v-.75h-2.16v.75ZM1090.16,30.24v8.53h.75v-8.53h-.75ZM1090.54,39.14h1.56v-.75h-1.56v.75ZM1091.72,38.77v1.63h.75v-1.63h-.75ZM1092.09,40.02h-1.56v.75h1.56v-.75ZM1090.16,40.39v3.72h.75v-3.72h-.75ZM1090.54,43.73h-1.75v.75h1.75v-.75ZM1086.53,39.14h2.26v-.75h-2.26v.75ZM1089.16,38.77v-6.3h-.75v6.3h.75ZM1088.44,32.34l-2.26,6.3.7.25,2.26-6.3-.7-.25ZM1100.66,43.89c-.67,0-1.23-.12-1.68-.35l-.34.67c.58.3,1.26.43,2.02.43v-.75ZM1098.99,43.54c-.43-.24-.76-.58-.99-1.02l-.67.34c.29.58.73,1.03,1.3,1.34l.36-.66ZM1098,42.52c-.23-.45-.36-1.01-.37-1.7h-.75c.02.78.16,1.47.46,2.04l.67-.34ZM1097.63,40.82h0v-.02h0v-.02h0v-.02h0v-.02h0s-.75,0-.75,0h0v.02h0v.02h0v.02h0v.02h0s.75,0,.75,0ZM1097.63,40.75h0v-.02h0v-.02h0v-.02h0v-.02h0v-.02h0s-.75,0-.75,0h0v.02h0v.02h0v.02h0v.02h0v.02h0s.75,0,.75,0ZM1097.25,41.04h1.84v-.75h-1.84v.75ZM1098.71,40.67c0,.69.11,1.29.37,1.73l.64-.38c-.16-.28-.27-.72-.27-1.35h-.75ZM1099.09,42.4c.32.51.91.71,1.59.71v-.75c-.57,0-.83-.16-.94-.35l-.64.39ZM1100.68,43.11c.43,0,.8-.13,1.11-.4l-.5-.56c-.15.14-.34.21-.61.21v.75ZM1101.79,42.7c.29-.28.49-.68.61-1.15l-.72-.19c-.1.39-.25.65-.41.8l.52.54ZM1102.41,41.55c.13-.49.19-1.08.19-1.77h-.75c0,.66-.06,1.18-.16,1.58l.73.19ZM1102.6,39.78v-2.11h-.75v2.11h.75ZM1101.9,37.48c-.13.22-.34.41-.63.56l.35.66c.4-.21.7-.49.92-.84l-.64-.39ZM1101.28,38.04c-.26.14-.61.21-1.08.21v.75c.55,0,1.03-.09,1.42-.3l-.34-.67ZM1100.2,38.26c-.71,0-1.22-.16-1.57-.42l-.46.6c.52.4,1.21.57,2.02.57v-.75ZM1098.63,37.84c-.37-.29-.64-.69-.79-1.22l-.72.22c.2.66.55,1.19,1.05,1.59l.46-.59ZM1097.84,36.63c-.16-.56-.24-1.23-.24-2h-.75c0,.82.08,1.56.27,2.21l.72-.2ZM1097.6,34.62c0-.81.1-1.53.32-2.16l-.71-.24c-.25.72-.36,1.52-.36,2.4h.75ZM1097.92,32.47c.21-.62.53-1.1.97-1.45l-.47-.59c-.56.45-.97,1.06-1.21,1.8l.71.24ZM1098.89,31.02c.43-.34,1.01-.52,1.78-.52v-.75c-.88,0-1.64.22-2.23.68l.46.59ZM1100.66,30.5c.73,0,1.29.19,1.72.53l.47-.58c-.58-.48-1.33-.7-2.19-.7v.75ZM1102.38,31.03c.44.35.76.83.97,1.45l.71-.24c-.25-.74-.65-1.35-1.22-1.8l-.46.59ZM1103.35,32.49c.22.64.34,1.36.34,2.17h.75c0-.88-.12-1.69-.37-2.42l-.71.25ZM1103.69,34.66v4.66h.75v-4.66h-.75ZM1103.69,39.32c0,.86-.1,1.65-.29,2.37l.73.2c.21-.79.31-1.65.31-2.56h-.75ZM1103.4,41.68c-.19.7-.5,1.24-.94,1.64l.51.55c.55-.51.93-1.18,1.15-1.99l-.73-.2ZM1102.46,43.32c-.4.36-.98.57-1.8.57v.75c.94,0,1.72-.24,2.31-.76l-.51-.56ZM1100.66,37.62c.46,0,.87-.11,1.21-.37l-.46-.59c-.16.13-.4.21-.74.21v.75ZM1101.88,37.24c.28-.23.5-.49.67-.77l-.65-.37c-.1.19-.27.38-.49.56l.48.58ZM1102.6,36.28v-2.05h-.75v2.05h.75ZM1102.6,34.23c0-.5-.05-.97-.15-1.39l-.73.17c.08.35.13.76.13,1.22h.75ZM1102.45,32.85c-.1-.45-.28-.83-.58-1.12l-.53.53c.16.17.3.41.38.76l.73-.17ZM1101.88,31.73c-.31-.33-.73-.48-1.21-.48v.75c.32,0,.52.09.67.24l.55-.52ZM1100.66,31.25c-.48,0-.9.15-1.22.47l.52.53c.16-.16.37-.25.7-.25v-.75ZM1099.43,31.73c-.28.29-.47.67-.59,1.1l.73.19c.09-.34.23-.59.4-.78l-.54-.52ZM1098.84,32.84c-.1.41-.15.86-.15,1.34h.75c0-.43.05-.82.13-1.16l-.73-.18ZM1098.69,34.18c0,.56.02,1.08.07,1.56l.74-.07c-.04-.45-.07-.95-.07-1.49h-.75ZM1098.77,35.75c.06.51.22.96.49,1.31l.59-.45c-.16-.22-.28-.53-.34-.95l-.74.09ZM1099.26,37.07c.33.39.82.55,1.4.55v-.75c-.46,0-.7-.12-.82-.28l-.58.48ZM1113.37,43.89c-.67,0-1.23-.12-1.68-.35l-.34.67c.58.3,1.26.43,2.02.43v-.75ZM1111.69,43.54c-.43-.24-.76-.58-.99-1.02l-.67.34c.3.58.73,1.03,1.3,1.34l.36-.66ZM1110.7,42.52c-.23-.45-.36-1.01-.37-1.7h-.75c.02.78.16,1.47.45,2.04l.67-.34ZM1110.33,40.82h0v-.02h0v-.02h0v-.02h0v-.02h0s-.75,0-.75,0h0v.02h0v.02h0v.02h0v.02h0s.75,0,.75,0ZM1110.33,40.75h0v-.02h0v-.02h0v-.02h0v-.02h0v-.02h0s-.75,0-.75,0h0v.02h0v.02h0v.02h0v.02h0v.02h0s.75,0,.75,0ZM1109.96,41.04h1.84v-.75h-1.84v.75ZM1111.42,40.67c0,.69.11,1.29.37,1.73l.64-.38c-.16-.28-.27-.72-.27-1.35h-.75ZM1111.79,42.4c.31.51.9.71,1.59.71v-.75c-.57,0-.83-.16-.94-.35l-.64.39ZM1113.38,43.11c.43,0,.8-.13,1.11-.4l-.5-.56c-.15.14-.34.21-.61.21v.75ZM1114.5,42.7c.29-.28.49-.68.61-1.15l-.73-.19c-.1.39-.25.65-.4.8l.52.54ZM1115.11,41.55c.13-.49.19-1.08.19-1.77h-.75c0,.66-.06,1.18-.16,1.58l.73.19ZM1115.3,39.78v-2.11h-.75v2.11h.75ZM1114.6,37.48c-.13.22-.34.41-.63.56l.35.66c.4-.21.7-.49.92-.84l-.64-.39ZM1113.98,38.04c-.26.14-.61.21-1.08.21v.75c.54,0,1.03-.09,1.42-.3l-.34-.67ZM1112.9,38.26c-.71,0-1.22-.16-1.57-.42l-.46.6c.52.4,1.21.57,2.02.57v-.75ZM1111.33,37.84c-.37-.29-.64-.69-.79-1.22l-.72.22c.2.66.55,1.19,1.05,1.59l.46-.59ZM1110.54,36.63c-.16-.56-.24-1.23-.24-2h-.75c0,.82.08,1.56.27,2.21l.72-.2ZM1110.3,34.62c0-.81.1-1.53.32-2.16l-.71-.24c-.25.72-.36,1.52-.36,2.4h.75ZM1110.62,32.47c.21-.62.53-1.1.97-1.45l-.47-.59c-.56.45-.97,1.06-1.21,1.8l.71.24ZM1111.59,31.02c.43-.34,1.01-.52,1.78-.52v-.75c-.88,0-1.64.22-2.23.68l.46.59ZM1113.37,30.5c.73,0,1.29.19,1.72.53l.47-.58c-.58-.48-1.33-.7-2.19-.7v.75ZM1115.08,31.03c.44.35.76.83.97,1.45l.71-.24c-.25-.74-.65-1.35-1.22-1.8l-.46.59ZM1116.06,32.49c.22.64.34,1.36.34,2.17h.75c0-.88-.12-1.69-.37-2.42l-.71.25ZM1116.39,34.66v4.66h.75v-4.66h-.75ZM1116.39,39.32c0,.86-.1,1.65-.29,2.37l.72.2c.22-.79.32-1.65.32-2.56h-.75ZM1116.1,41.68c-.19.7-.51,1.24-.94,1.64l.51.55c.55-.51.93-1.18,1.15-1.99l-.72-.2ZM1115.16,43.32c-.4.36-.98.57-1.8.57v.75c.94,0,1.72-.24,2.3-.76l-.5-.56ZM1113.37,37.62c.46,0,.87-.11,1.21-.37l-.46-.59c-.16.13-.4.21-.74.21v.75ZM1114.58,37.24c.28-.23.5-.49.67-.77l-.65-.37c-.11.19-.27.38-.49.56l.48.58ZM1115.3,36.28v-2.05h-.75v2.05h.75ZM1115.3,34.23c0-.5-.05-.97-.15-1.39l-.73.17c.08.35.13.76.13,1.22h.75ZM1115.15,32.85c-.1-.45-.29-.83-.58-1.12l-.53.53c.16.17.3.41.38.76l.73-.17ZM1114.58,31.73c-.31-.33-.73-.48-1.21-.48v.75c.31,0,.52.09.67.24l.55-.52ZM1113.37,31.25c-.48,0-.9.15-1.23.47l.53.53c.16-.16.37-.25.7-.25v-.75ZM1112.14,31.73c-.28.29-.47.67-.59,1.1l.73.19c.09-.34.23-.59.4-.78l-.54-.52ZM1111.54,32.84c-.1.41-.15.86-.15,1.34h.75c0-.43.04-.82.13-1.16l-.73-.18ZM1111.39,34.18c0,.56.02,1.08.07,1.56l.74-.07c-.05-.45-.07-.95-.07-1.49h-.75ZM1111.47,35.75c.06.51.22.96.48,1.31l.6-.45c-.16-.22-.28-.53-.34-.95l-.74.09ZM1111.96,37.07c.32.39.82.55,1.4.55v-.75c-.46,0-.7-.12-.82-.28l-.58.48ZM1131.32,44.12l.25-13.87h-.75s-.25,13.85-.25,13.85h.75ZM1131.2,30.62h1.9v-.75h-1.9v.75ZM1132.73,30.32l2.44,11.25.73-.16-2.45-11.25-.73.16ZM1135.91,41.57l2.47-11.25-.73-.16-2.47,11.25.73.16ZM1138.01,30.62h1.88v-.75h-1.88v.75ZM1139.51,30.25l.26,13.87h.75s-.26-13.88-.26-13.88h-.75ZM1140.15,43.73h-1.56v.75h1.56v-.75ZM1138.97,44.1l-.16-10.07h-.75s.16,10.08.16,10.08h.75ZM1138.08,33.96l-2.35,10.07.73.17,2.35-10.07-.73-.17ZM1136.09,43.73h-1.09v.75h1.09v-.75ZM1135.36,44.02l-2.33-10.07-.73.17,2.32,10.07.73-.17ZM1132.29,34.04l-.15,10.07h.75s.15-10.06.15-10.06h-.75ZM1132.51,43.73h-1.57v.75h1.57v-.75ZM1146.76,44.11v-13.87h-.75v13.87h.75ZM1146.39,30.62h5.37v-.75h-5.37v.75ZM1151.39,30.24v1.44h.75v-1.44h-.75ZM1151.76,31.3h-3.44v.75h3.44v-.75ZM1147.95,31.68v4.59h.75v-4.59h-.75ZM1148.32,36.64h2.79v-.75h-2.79v.75ZM1150.73,36.27v1.37h.75v-1.37h-.75ZM1151.11,37.26h-2.79v.75h2.79v-.75ZM1147.95,37.64v5.09h.75v-5.09h-.75ZM1148.32,43.1h3.47v-.75h-3.47v.75ZM1151.42,42.72v1.39h.75v-1.39h-.75ZM1151.79,43.73h-5.4v.75h5.4v-.75ZM1159.36,44.11v-12.43h-.75v12.43h.75ZM1158.99,31.3h-2.35v.75h2.35v-.75ZM1157.02,31.68v-1.44h-.75v1.44h.75ZM1156.64,30.62h6.56v-.75h-6.56v.75ZM1162.82,30.24v1.44h.75v-1.44h-.75ZM1163.2,31.3h-2.27v.75h2.27v-.75ZM1160.55,31.68v12.43h.75v-12.43h-.75ZM1160.93,43.73h-1.94v.75h1.94v-.75ZM1169.02,44.11v-13.87h-.75v13.87h.75ZM1168.65,30.62h5.37v-.75h-5.37v.75ZM1173.65,30.24v1.44h.75v-1.44h-.75ZM1174.02,31.3h-3.44v.75h3.44v-.75ZM1170.21,31.68v4.59h.75v-4.59h-.75ZM1170.58,36.64h2.8v-.75h-2.8v.75ZM1173,36.27v1.37h.75v-1.37h-.75ZM1173.38,37.26h-2.8v.75h2.8v-.75ZM1170.21,37.64v5.09h.75v-5.09h-.75ZM1170.58,43.1h3.48v-.75h-3.48v.75ZM1173.68,42.72v1.39h.75v-1.39h-.75ZM1174.06,43.73h-5.41v.75h5.41v-.75ZM1180.11,44.11v-13.87h-.75v13.87h.75ZM1179.73,30.62h2.79v-.75h-2.79v.75ZM1182.52,30.62c.89,0,1.6.12,2.15.35l.28-.69c-.67-.28-1.48-.41-2.44-.41v.75ZM1184.68,30.97c.52.21.9.54,1.14,1.01l.67-.35c-.33-.63-.85-1.09-1.54-1.36l-.27.7ZM1185.82,31.98c.26.46.4,1.1.4,1.94h.75c0-.92-.16-1.69-.49-2.3l-.66.36ZM1186.22,33.92c0,.51-.06.97-.16,1.38l.73.19c.13-.48.19-1,.19-1.57h-.75ZM1186.06,35.3c-.1.39-.26.71-.47.97l.58.47c.29-.35.49-.78.62-1.25l-.73-.19ZM1185.59,36.27c-.19.24-.47.42-.82.54l.24.71c.46-.16.86-.41,1.16-.76l-.58-.48ZM1184.52,37.26l1.97,6.95.72-.2-1.97-6.95-.72.2ZM1186.85,43.73h-1.87v.75h1.87v-.75ZM1185.35,44.01l-1.81-6.51-.72.2,1.81,6.51.72-.2ZM1183.17,37.23h-1.51v.75h1.51v-.75ZM1181.29,37.6v6.51h.75v-6.51h-.75ZM1181.67,43.73h-1.93v.75h1.93v-.75ZM1181.67,36.59h.73v-.75h-.73v.75ZM1182.4,36.59c.58,0,1.07-.07,1.48-.23l-.28-.7c-.28.11-.68.18-1.2.18v.75ZM1183.88,36.36c.43-.17.75-.47.95-.89l-.67-.33c-.12.25-.3.41-.55.52l.28.7ZM1184.83,35.47c.19-.4.28-.93.28-1.55h-.75c0,.57-.08.97-.2,1.22l.67.33ZM1185.11,33.92c0-.84-.15-1.53-.53-1.99l-.58.48c.21.25.36.72.36,1.51h.75ZM1184.57,31.94c-.41-.5-1.15-.69-2.05-.69v.75c.85,0,1.29.18,1.47.41l.58-.47ZM1182.52,31.25h-.85v.75h.85v-.75ZM1181.29,31.63v4.59h.75v-4.59h-.75ZM1195.95,43.89c-.74,0-1.33-.16-1.8-.45l-.4.63c.61.39,1.36.57,2.2.57v-.75ZM1194.15,43.44c-.46-.3-.81-.72-1.06-1.26l-.68.31c.3.67.74,1.2,1.33,1.58l.4-.63ZM1193.1,42.17c-.25-.56-.4-1.21-.45-1.97l-.75.04c.05.84.22,1.58.52,2.24l.68-.31ZM1192.37,40.58l1.72-.46-.19-.72-1.72.46.19.72ZM1193.61,39.79c.03.51.11,1.01.23,1.49l.73-.18c-.11-.43-.18-.89-.22-1.36l-.74.05ZM1193.85,41.28c.14.5.37.94.68,1.28l.55-.51c-.22-.25-.4-.57-.52-.98l-.72.2ZM1194.53,42.57c.36.38.85.54,1.42.54v-.75c-.41,0-.69-.12-.88-.31l-.54.52ZM1195.95,43.11c.57,0,1.06-.16,1.41-.53l-.55-.51c-.16.17-.42.29-.85.29v.75ZM1197.36,42.58c.34-.38.49-.88.49-1.47h-.75c0,.46-.12.77-.3.96l.55.51ZM1197.86,41.11c0-.68-.16-1.27-.51-1.73l-.59.45c.22.29.35.71.35,1.28h.75ZM1197.35,39.38c-.31-.41-.68-.82-1.13-1.22l-.5.56c.42.37.76.74,1.03,1.11l.61-.44ZM1196.22,38.16l-2.33-2.05-.49.56,2.32,2.05.5-.56ZM1193.89,36.11c-.43-.37-.73-.76-.92-1.18l-.67.32c.24.52.61,1,1.1,1.43l.49-.56ZM1192.98,34.93c-.19-.42-.29-.95-.29-1.61h-.75c0,.73.11,1.38.36,1.92l.68-.31ZM1192.68,33.32c0-.94.26-1.62.76-2.09l-.52-.54c-.67.65-.99,1.54-.99,2.63h.75ZM1193.44,31.23c.49-.48,1.18-.73,2.12-.73v-.75c-1.08,0-1.97.3-2.64.94l.52.54ZM1195.56,30.5c.51,0,.94.07,1.31.2l.25-.7c-.46-.17-.99-.24-1.57-.24v.75ZM1196.88,30.7c.37.12.66.3.88.55l.55-.51c-.32-.35-.73-.6-1.21-.75l-.23.71ZM1197.77,31.25c.24.25.44.58.58.99l.7-.25c-.17-.5-.42-.92-.75-1.27l-.54.52ZM1198.36,32.26c.16.41.27.9.32,1.48l.75-.07c-.06-.63-.18-1.19-.37-1.67l-.7.27ZM1198.96,33.34l-1.65.45.2.72,1.64-.45-.19-.72ZM1197.78,34.12c-.03-.48-.1-.92-.22-1.32l-.72.2c.1.35.16.74.19,1.18l.74-.06ZM1197.56,32.8c-.11-.45-.34-.83-.66-1.11l-.49.57c.19.17.34.41.43.74l.72-.19ZM1196.91,31.7c-.34-.33-.81-.46-1.35-.46v.75c.42,0,.67.1.83.26l.52-.54ZM1195.56,31.24c-.55,0-1.03.15-1.39.5l.52.54c.19-.18.46-.29.87-.29v-.75ZM1194.17,31.73c-.36.35-.51.84-.51,1.4h.75c0-.44.12-.7.28-.86l-.52-.54ZM1193.66,33.13c0,.46.08.87.25,1.21l.67-.34c-.1-.21-.17-.49-.17-.88h-.75ZM1193.91,34.36c.17.32.44.64.78.94l.5-.56c-.3-.27-.5-.51-.62-.74l-.66.36ZM1194.7,35.3l2.35,2.05.49-.56-2.35-2.05-.49.56ZM1197.05,37.36c.49.43.93.95,1.31,1.56l.64-.4c-.42-.67-.91-1.24-1.46-1.73l-.49.57ZM1198.36,38.92c.36.56.54,1.23.54,2.04h.75c0-.93-.21-1.75-.65-2.44l-.64.4ZM1198.9,40.96c0,.63-.13,1.16-.37,1.6l.65.37c.32-.57.47-1.23.47-1.97h-.75ZM1198.52,42.55c-.25.43-.59.76-1.03.99l.34.66c.56-.3,1.01-.72,1.33-1.27l-.65-.38ZM1197.49,43.54c-.43.23-.94.35-1.54.35v.75c.7,0,1.33-.14,1.89-.44l-.35-.66ZM500.89,397.12l103.43,68.95.42-.62-103.43-68.95-.42.62ZM604.32,466.07l248.08-188.12-.45-.6-248.08,188.12.45.6ZM852.4,277.95l228.59-77.95-.24-.71-228.59,77.95.24.71ZM1080.99,200l184.37-119.92-.41-.63-184.37,119.92.41.63ZM1264.62,80.08l29.98,9.74.23-.71-29.98-9.74-.23.71ZM863.27,277.95c0,5.59-4.53,10.12-10.12,10.12v.75c6,0,10.87-4.87,10.87-10.87h-.75ZM853.15,288.07c-5.59,0-10.12-4.53-10.12-10.12h-.75c0,6,4.86,10.87,10.87,10.87v-.75ZM843.03,277.95c0-5.59,4.53-10.12,10.12-10.12v-.75c-6,0-10.87,4.87-10.87,10.87h.75ZM853.15,267.83c5.59,0,10.12,4.53,10.12,10.12h.75c0-6-4.86-10.87-10.87-10.87v.75ZM1274.74,79.34c0,5.59-4.53,10.12-10.12,10.12v.75c6,0,10.87-4.87,10.87-10.87h-.75ZM1264.62,89.45c-5.59,0-10.12-4.53-10.12-10.12h-.75c0,6,4.86,10.87,10.87,10.87v-.75ZM1254.5,79.34c0-5.59,4.53-10.12,10.12-10.12v-.75c-6,0-10.87,4.87-10.87,10.87h.75ZM1264.62,69.22c5.59,0,10.12,4.53,10.12,10.12h.75c0-6-4.86-10.87-10.87-10.87v.75ZM852.9,277.65l-64.09-21.04-.24.71,64.09,21.04.24-.71ZM1264.51,79.11l-47.6-43.52-.51.55,47.6,43.52.51-.55ZM501.64,396.37l-143.15-38.22-.19.72,143.15,38.22.19-.72ZM358.49,358.15L126.9,187.26l-.45.6,231.59,170.88.45-.6ZM1294.6,89.83L1440,.64l-.39-.64-145.4,89.19.39.64ZM126.9,187.26L.23,146.04l-.23.71,126.66,41.22.23-.71Z"/>
</svg>